# xmcd
#
# Track frame offsets:
#	150
#	12313
#	24805
#	34674
#	50917
#	59413
#	70259
#	78436
#	89625
#	98338
#
# Disc length: 1434 seconds
#
# Revision: 0
# Processed by: cddbd v1.5.2PL0 Copyright (c) Steve Scherf et al.
# Submitted via: dBpowerAMP V4.0
#
DISCID=7805980a
DTITLE=Johnny Cash - Mirror Legends
DYEAR=2007
DGENRE=Country
TTITLE0=I Walk The Line
TTITLE1=Folsom Prison Blues
TTITLE2=Hey Porter
TTITLE3=A Boy Named Sue
TTITLE4=I Got Stripes
TTITLE5=Cry, Cry, Cry
TTITLE6=Five Feet High And Rising
TTITLE7=Big River
TTITLE8=I Got A Woman
TTITLE9=Goodbye Little Darlin' Goodbye
EXTD=
EXTT0=
EXTT1=
EXTT2=
EXTT3=
EXTT4=
EXTT5=
EXTT6=
EXTT7=
EXTT8=
EXTT9=
PLAYORDER=
